<svg xmlns="http://www.w3.org/2000/svg" width="512" height="512" viewBox="0 0 512 512" version="1.1"><path d="M 251.615 66.465 C 250.727 67.820, 250 69.163, 250 69.447 C 250 69.732, 248.200 72.906, 246 76.500 C 243.800 80.094, 242 83.261, 242 83.537 C 242 83.814, 240.799 85.942, 239.332 88.266 C 236.121 93.352, 227 109.150, 227 109.624 C 227 109.809, 225.425 112.423, 223.500 115.433 C 221.575 118.442, 220 121.155, 220 121.463 C 220 121.770, 217.750 125.612, 215 130 C 212.250 134.388, 210 138.230, 210 138.537 C 210 138.845, 208.425 141.558, 206.500 144.567 C 204.575 147.577, 203 150.247, 203 150.502 C 203 150.756, 201.200 153.906, 199 157.500 C 196.800 161.094, 195 164.244, 195 164.498 C 195 164.753, 193.425 167.423, 191.500 170.433 C 189.575 173.442, 188 176.143, 188 176.434 C 188 176.726, 186.200 179.906, 184 183.500 C 181.800 187.094, 180 190.244, 180 190.498 C 180 190.753, 178.425 193.423, 176.500 196.433 C 174.575 199.442, 173 202.172, 173 202.500 C 173 202.828, 171.425 205.558, 169.500 208.567 C 167.575 211.577, 166 214.266, 166 214.544 C 166 214.822, 164.200 217.899, 162 221.383 C 158.152 227.476, 156.882 232, 159.020 232 C 159.581 232, 161.822 230.875, 164 229.500 C 166.178 228.125, 168.185 227, 168.461 227 C 168.736 227, 171.423 225.425, 174.433 223.500 C 177.442 221.575, 180.172 220, 180.500 220 C 180.828 220, 183.558 218.425, 186.567 216.500 C 189.577 214.575, 192.198 213, 192.393 213 C 192.588 213, 197.811 210.075, 204 206.500 C 210.189 202.925, 215.412 200, 215.607 200 C 215.802 200, 218.423 198.425, 221.433 196.500 C 224.442 194.575, 227.172 193, 227.500 193 C 227.828 193, 230.558 191.425, 233.567 189.500 C 236.577 187.575, 239.205 186, 239.409 186 C 239.612 186, 242.858 184.200, 246.623 182 C 250.388 179.800, 254.455 178, 255.661 178 C 257.678 178, 264 184.256, 264 186.252 C 264 186.691, 265.800 189.899, 268 193.383 C 270.200 196.866, 272 199.996, 272 200.339 C 272 200.681, 273.575 203.423, 275.500 206.433 C 277.425 209.442, 279 212.155, 279 212.463 C 279 212.770, 281.250 216.612, 284 221 C 286.750 225.388, 289 229.199, 289 229.470 C 289 229.740, 290.575 232.423, 292.500 235.433 C 294.425 238.442, 296 241.172, 296 241.500 C 296 241.828, 297.575 244.558, 299.500 247.567 C 301.425 250.577, 303 253.319, 303 253.661 C 303 254.004, 304.800 257.134, 307 260.617 C 309.200 264.101, 311 267.196, 311 267.495 C 311 267.795, 312.201 269.942, 313.668 272.266 C 316.879 277.352, 326 293.150, 326 293.624 C 326 293.809, 327.575 296.423, 329.500 299.433 C 331.425 302.442, 333 305.155, 333 305.463 C 333 305.770, 335.250 309.612, 338 314 C 340.750 318.388, 343 322.230, 343 322.537 C 343 322.845, 344.473 325.437, 346.273 328.298 C 348.073 331.159, 350.088 334.738, 350.751 336.250 C 351.414 337.762, 352.417 339, 352.979 339 C 353.661 339, 354 321.083, 354 284.980 L 354 230.960 351.500 227 C 350.125 224.822, 349 222.795, 349 222.495 C 349 222.196, 347.200 219.101, 345 215.617 C 342.800 212.134, 341 209.004, 341 208.661 C 341 208.319, 339.425 205.577, 337.500 202.567 C 335.575 199.558, 334 196.841, 334 196.528 C 334 196.216, 332.799 194.058, 331.332 191.734 C 328.336 186.988, 319 170.864, 319 170.436 C 319 170.283, 316.750 166.531, 314 162.097 C 311.250 157.663, 309 153.811, 309 153.537 C 309 153.263, 307.425 150.577, 305.500 147.567 C 303.575 144.558, 302 141.828, 302 141.500 C 302 141.172, 300.425 138.442, 298.500 135.433 C 296.575 132.423, 295 129.681, 295 129.339 C 295 128.996, 293.200 125.866, 291 122.383 C 288.800 118.899, 287 115.791, 287 115.476 C 287 115.162, 285.425 112.442, 283.500 109.433 C 281.575 106.423, 280 103.753, 280 103.498 C 280 103.244, 278.200 100.094, 276 96.500 C 273.800 92.906, 272 89.756, 272 89.502 C 272 89.247, 270.425 86.577, 268.500 83.567 C 266.575 80.558, 265 77.858, 265 77.567 C 265 77.277, 263.425 74.577, 261.500 71.567 C 259.575 68.558, 258 65.624, 258 65.048 C 258 62.946, 253.227 64.005, 251.615 66.465 M 225.785 211.500 C 223.762 212.875, 221.865 214, 221.571 214 C 221.276 214, 218.094 215.800, 214.500 218 C 210.906 220.200, 207.756 222, 207.502 222 C 207.247 222, 204.577 223.575, 201.567 225.500 C 198.558 227.425, 195.828 229, 195.500 229 C 195.172 229, 192.442 230.575, 189.433 232.500 C 186.423 234.425, 183.753 236, 183.498 236 C 183.244 236, 180.094 237.800, 176.500 240 C 172.906 242.200, 169.756 244, 169.502 244 C 169.247 244, 166.577 245.575, 163.567 247.500 C 160.558 249.425, 157.857 251, 157.566 251 C 157.274 251, 154.215 252.694, 150.768 254.764 C 147.320 256.835, 143.251 259.167, 141.724 259.947 C 139.446 261.111, 131 272.569, 131 274.495 C 131 274.795, 129.851 276.860, 128.446 279.085 C 125.787 283.297, 124.526 285.497, 119.031 295.500 C 117.218 298.800, 115.391 301.950, 114.971 302.500 C 113.874 303.935, 104 321.208, 104 321.692 C 104 321.914, 102.425 324.558, 100.500 327.567 C 98.575 330.577, 97 333.247, 97 333.502 C 97 333.756, 95.200 336.906, 93 340.500 C 90.800 344.094, 89 347.244, 89 347.498 C 89 347.753, 87.425 350.423, 85.500 353.433 C 83.575 356.442, 82 359.172, 82 359.500 C 82 359.828, 80.425 362.558, 78.500 365.567 C 76.575 368.577, 75 371.247, 75 371.502 C 75 371.756, 73.200 374.906, 71 378.500 C 68.800 382.094, 67 385.261, 67 385.537 C 67 385.814, 65.851 387.860, 64.446 390.085 C 61.882 394.147, 61.125 395.461, 55.015 406.462 C 53.194 409.741, 50.196 414.782, 48.352 417.664 C 46.508 420.546, 45 423.159, 45 423.472 C 45 423.784, 43.875 425.822, 42.500 428 C 41.125 430.178, 40 432.419, 40 432.980 C 40 434.353, 236.633 434.403, 237.481 433.030 C 237.811 432.497, 236.600 431.388, 234.790 430.566 C 231.474 429.060, 226.502 426.243, 217.735 420.903 C 215.114 419.306, 212.760 418, 212.504 418 C 212.248 418, 209.577 416.425, 206.567 414.500 C 203.558 412.575, 200.828 411, 200.500 411 C 200.172 411, 197.442 409.425, 194.433 407.500 C 191.423 405.575, 188.802 404, 188.607 404 C 188.412 404, 183.189 401.075, 177 397.500 C 170.811 393.925, 165.354 391, 164.874 391 C 164.393 391, 164 390.602, 164 390.117 C 164 389.631, 163.213 388.979, 162.250 388.669 C 159.362 387.738, 146.957 380.466, 143.358 377.594 C 141.209 375.880, 140 374.043, 140 372.493 C 140 370.142, 143.359 363.254, 147.143 357.846 C 148.164 356.386, 149 354.931, 149 354.613 C 149 354.295, 150.800 351.094, 153 347.500 C 155.200 343.906, 157 340.756, 157 340.502 C 157 340.247, 158.575 337.577, 160.500 334.567 C 162.425 331.558, 164 328.828, 164 328.500 C 164 328.172, 165.575 325.442, 167.500 322.433 C 169.425 319.423, 171 316.672, 171 316.318 C 171 315.964, 172.312 313.611, 173.916 311.088 C 178.167 304.399, 183.025 295.765, 183.672 293.750 C 183.981 292.788, 184.631 292, 185.117 292 C 185.602 292, 186 291.615, 186 291.143 C 186 290.340, 195.305 273.679, 196.971 271.500 C 197.391 270.950, 199.219 267.800, 201.032 264.500 C 202.845 261.200, 205.444 256.475, 206.807 254 C 208.171 251.525, 210.122 248.306, 211.143 246.846 C 212.164 245.386, 213 243.931, 213 243.613 C 213 243.295, 214.800 240.094, 217 236.500 C 219.200 232.906, 221 229.705, 221 229.387 C 221 229.069, 221.840 227.614, 222.866 226.154 C 225.075 223.012, 232 210.460, 232 209.599 C 232 208.293, 229.280 209.125, 225.785 211.500 M 367.985 318.250 C 367.976 351.315, 367.589 374.102, 367.021 375 C 366.193 376.310, 354.206 376.563, 272.370 377 C 198.654 377.393, 178.578 377.767, 178.250 378.750 C 178.021 379.438, 178.546 380, 179.417 380 C 180.287 380, 181 380.351, 181 380.781 C 181 381.210, 182.238 382.087, 183.750 382.729 C 186.469 383.884, 191.008 386.458, 200.265 392.097 C 202.886 393.694, 205.240 395, 205.496 395 C 205.752 395, 208.423 396.575, 211.433 398.500 C 214.442 400.425, 217.172 402, 217.500 402 C 217.828 402, 220.558 403.575, 223.567 405.500 C 226.577 407.425, 229.198 409, 229.393 409 C 229.588 409, 234.811 411.925, 241 415.500 C 247.189 419.075, 252.646 422, 253.126 422 C 253.607 422, 254 422.398, 254 422.883 C 254 423.369, 254.788 424.019, 255.750 424.327 C 256.713 424.635, 260.200 426.466, 263.500 428.396 L 269.500 431.905 369.250 431.952 C 424.113 431.979, 468.990 431.663, 468.978 431.250 C 468.966 430.837, 468.076 429.375, 467 428 C 465.924 426.625, 465.034 425.099, 465.022 424.608 C 465.010 424.117, 463.200 420.866, 461 417.383 C 458.800 413.899, 457 410.791, 457 410.476 C 457 410.162, 455.425 407.442, 453.500 404.433 C 451.575 401.423, 450 398.753, 450 398.498 C 450 398.244, 448.200 395.094, 446 391.500 C 443.800 387.906, 442 384.756, 442 384.502 C 442 384.247, 440.425 381.577, 438.500 378.567 C 436.575 375.558, 435 372.828, 435 372.500 C 435 372.172, 433.425 369.442, 431.500 366.433 C 429.575 363.423, 428 360.681, 428 360.339 C 428 359.996, 426.200 356.866, 424 353.383 C 421.800 349.899, 420 346.791, 420 346.476 C 420 346.162, 418.425 343.442, 416.500 340.433 C 414.575 337.423, 413 334.753, 413 334.498 C 413 334.244, 411.200 331.094, 409 327.500 C 406.800 323.906, 405 320.756, 405 320.502 C 405 320.247, 403.425 317.577, 401.500 314.567 C 399.575 311.558, 398 308.841, 398 308.528 C 398 308.216, 396.799 306.058, 395.332 303.734 C 391.893 298.286, 383 282.836, 383 282.308 C 383 282.086, 381.448 279.478, 379.551 276.513 C 377.655 273.548, 375.171 269.295, 374.031 267.061 C 372.662 264.378, 371.287 263, 369.980 263 C 368.031 263, 368 263.861, 367.985 318.250" stroke="none" fill="#0d53b7" fill-rule="evenodd"/><path d="M 245.488 217.452 C 243.569 220.451, 242 223.159, 242 223.472 C 242 223.784, 240.799 225.942, 239.332 228.266 C 236.121 233.352, 227 249.150, 227 249.624 C 227 249.809, 225.425 252.423, 223.500 255.433 C 221.575 258.442, 220 261.155, 220 261.463 C 220 261.770, 217.750 265.612, 215 270 C 212.250 274.388, 210 278.230, 210 278.537 C 210 278.845, 208.425 281.558, 206.500 284.567 C 204.575 287.577, 203 290.247, 203 290.502 C 203 290.756, 201.200 293.906, 199 297.500 C 196.800 301.094, 195 304.244, 195 304.498 C 195 304.753, 193.425 307.423, 191.500 310.433 C 189.575 313.442, 188 316.162, 188 316.476 C 188 316.791, 186.200 319.899, 184 323.383 C 181.800 326.866, 180 329.996, 180 330.339 C 180 330.681, 178.425 333.423, 176.500 336.433 C 174.575 339.442, 173 342.174, 173 342.505 C 173 342.836, 171.875 344.762, 170.500 346.785 C 167.280 351.524, 167.148 357.128, 170.189 359.961 C 172.354 361.978, 173.239 362, 254.054 362 C 335.170 362, 335.748 361.986, 338.365 359.927 C 342.157 356.944, 341.885 352.422, 337.500 345.567 C 335.575 342.558, 334 339.841, 334 339.528 C 334 339.216, 332.799 337.058, 331.332 334.734 C 326.659 327.331, 319 313.744, 319 312.857 C 319 312.385, 318.550 312, 318 312 C 317.450 312, 317 311.615, 317 311.143 C 317 310.256, 309.341 296.669, 304.668 289.266 C 303.201 286.942, 302 284.784, 302 284.472 C 302 284.159, 300.425 281.442, 298.500 278.433 C 296.575 275.423, 295 272.681, 295 272.339 C 295 271.996, 293.200 268.866, 291 265.383 C 288.800 261.899, 287 258.791, 287 258.476 C 287 258.162, 285.425 255.442, 283.500 252.433 C 281.575 249.423, 280 246.734, 280 246.456 C 280 246.178, 278.241 243.150, 276.090 239.725 C 270.743 231.211, 266.004 222.856, 265.328 220.750 C 265.019 219.787, 264.369 219, 263.883 219 C 263.398 219, 262.985 218.438, 262.967 217.750 C 262.948 217.063, 262.089 215.488, 261.056 214.250 C 259.560 212.456, 258.146 212, 254.077 212 C 248.991 212, 248.964 212.017, 245.488 217.452" stroke="none" fill="#c01e1e" fill-rule="evenodd"/></svg>