<?xml version="1.0" standalone="no"?>
<!DOCTYPE svg PUBLIC "-//W3C//DTD SVG 20010904//EN"
 "http://www.w3.org/TR/2001/REC-SVG-20010904/DTD/svg10.dtd">
<svg version="1.0" xmlns="http://www.w3.org/2000/svg"
 width="512.000000pt" height="512.000000pt" viewBox="0 0 512.000000 512.000000"
 preserveAspectRatio="xMidYMid meet">
<metadata>
Created by potrace 1.14, written by Peter Selinger 2001-2017
</metadata>
<g transform="translate(0.000000,512.000000) scale(0.100000,-0.100000)"
fill="#000000" stroke="none">
<path d="M2532 4463 c-7 -7 -9 -13 -5 -13 4 0 4 -4 -2 -8 -10 -7 -25 -31 -54
-87 -9 -16 -18 -32 -21 -35 -9 -9 -51 -85 -57 -102 -3 -10 -9 -18 -14 -18 -5
0 -9 -5 -9 -10 0 -6 -12 -29 -27 -53 -14 -23 -25 -44 -24 -45 2 -2 -5 -14 -15
-26 -11 -12 -20 -28 -22 -35 -1 -7 -9 -20 -17 -28 -8 -8 -15 -20 -15 -27 0 -8
-7 -19 -15 -26 -8 -7 -12 -16 -9 -21 3 -5 0 -9 -5 -9 -6 0 -11 -7 -11 -15 0
-8 -5 -15 -11 -15 -5 0 -7 -4 -4 -10 3 -5 2 -10 -4 -10 -6 0 -13 -11 -17 -25
-3 -14 -10 -25 -16 -25 -5 0 -6 -5 -3 -10 3 -6 -1 -13 -9 -16 -9 -3 -14 -10
-11 -14 3 -5 -1 -15 -8 -22 -8 -8 -29 -42 -47 -76 -19 -34 -38 -62 -43 -62 -4
0 -6 -4 -2 -9 3 -5 -1 -16 -9 -24 -8 -8 -12 -17 -9 -21 4 -3 2 -6 -4 -6 -6 0
-14 -11 -17 -25 -4 -14 -11 -25 -17 -25 -6 0 -7 -4 -4 -10 3 -5 2 -10 -4 -10
-5 0 -13 -10 -16 -21 -4 -12 -25 -49 -46 -83 -21 -33 -39 -67 -39 -73 0 -7 -3
-13 -7 -13 -5 0 -24 -29 -42 -65 -19 -36 -39 -65 -44 -65 -4 0 -5 -4 -2 -10 3
-5 1 -10 -5 -10 -6 0 -9 -4 -6 -9 3 -4 -3 -19 -14 -31 -11 -13 -20 -29 -20
-37 0 -7 -5 -13 -11 -13 -5 0 -7 -4 -4 -10 3 -5 1 -10 -4 -10 -6 0 -11 -7 -11
-15 0 -8 -4 -15 -10 -15 -5 0 -10 -6 -10 -14 0 -8 -6 -21 -14 -28 -7 -8 -17
-24 -20 -36 -4 -12 -12 -22 -17 -22 -6 0 -8 -4 -4 -9 3 -6 -3 -14 -12 -20 -10
-6 -14 -11 -9 -11 4 0 1 -12 -9 -26 -19 -30 -13 -43 12 -23 15 12 16 12 9 -1
-6 -12 -5 -12 6 0 7 9 28 22 45 29 18 7 30 18 26 24 -3 5 -1 7 5 3 6 -3 17 1
26 9 8 9 19 16 23 17 24 4 43 11 43 17 0 4 25 19 55 35 30 15 55 32 55 38 0 6
3 9 6 5 3 -3 28 8 55 24 28 16 54 29 60 29 5 0 12 7 15 15 4 8 10 13 14 10 5
-3 16 3 26 12 10 10 19 17 21 15 5 -4 97 51 101 60 2 5 8 6 13 2 5 -3 9 0 9 7
0 7 3 9 6 6 4 -3 18 3 32 13 13 11 31 20 38 20 8 0 14 3 14 8 0 4 14 13 30 20
17 8 36 19 43 26 6 6 31 20 55 30 23 11 42 23 42 28 0 5 4 7 9 4 5 -4 11 -2
13 3 1 5 19 12 38 16 44 7 73 -17 114 -95 16 -30 36 -63 44 -72 8 -10 12 -18
8 -18 -4 0 0 -7 8 -16 9 -8 16 -22 16 -30 0 -8 5 -14 10 -14 6 0 10 -4 10 -9
0 -5 20 -44 45 -85 25 -42 45 -81 45 -86 0 -6 5 -10 11 -10 5 0 8 -4 5 -9 -4
-5 -3 -11 1 -13 12 -5 73 -108 73 -123 0 -7 7 -16 16 -19 8 -3 12 -10 9 -16
-3 -5 -2 -10 3 -10 5 0 12 -8 15 -17 4 -10 20 -40 37 -68 17 -27 33 -58 37
-67 3 -10 8 -18 12 -18 4 0 13 -16 21 -35 8 -19 17 -35 22 -35 4 0 8 -9 8 -20
0 -11 4 -20 8 -20 8 0 21 -21 73 -120 13 -25 27 -47 30 -50 3 -3 16 -25 30
-50 13 -25 30 -51 37 -58 11 -12 15 -28 10 -35 -2 -2 5 -11 15 -21 9 -10 17
-25 17 -33 0 -9 3 -13 6 -10 8 8 54 -75 47 -85 -2 -5 1 -8 7 -8 6 0 18 -16 26
-35 8 -19 19 -35 26 -35 6 0 9 -3 5 -6 -3 -3 12 -35 34 -70 21 -35 39 -69 39
-74 0 -6 4 -10 8 -10 5 0 8 240 7 533 -1 531 -1 532 -23 567 -12 19 -22 41
-22 48 0 7 -4 10 -10 7 -5 -3 -10 3 -10 14 0 10 -3 21 -7 23 -5 2 -19 23 -32
48 -14 25 -28 48 -33 51 -5 3 -10 15 -13 27 -2 12 -11 29 -19 37 -8 8 -18 24
-21 35 -3 11 -11 20 -16 20 -5 0 -9 9 -9 20 0 11 -4 20 -10 20 -5 0 -12 11
-16 25 -3 14 -9 25 -13 25 -4 0 -13 16 -21 35 -8 19 -17 35 -21 35 -4 0 -9 8
-13 18 -7 20 -39 76 -55 95 -6 8 -8 17 -4 20 3 4 2 7 -4 7 -5 0 -18 18 -28 40
-10 22 -23 40 -28 40 -6 0 -7 3 -4 6 4 4 -4 21 -16 38 -12 17 -22 35 -22 39 0
4 -6 11 -13 16 -8 5 -14 11 -14 14 1 15 -23 67 -30 67 -5 0 -15 18 -24 40 -9
22 -19 40 -23 40 -4 0 -13 16 -20 35 -7 19 -17 35 -22 35 -5 0 -9 5 -9 11 0 7
-17 39 -38 73 -20 34 -44 75 -52 91 -8 17 -17 32 -20 35 -5 5 -10 13 -52 89
-11 20 -25 39 -30 42 -5 3 -9 9 -9 13 2 10 -31 70 -43 78 -6 5 -7 8 -1 8 7 0
7 3 0 8 -12 9 -44 61 -52 85 -3 9 -10 17 -15 17 -5 0 -6 5 -3 10 3 6 0 13 -9
16 -8 3 -13 11 -10 19 7 18 -29 25 -44 8z"/>
<path d="M2280 3012 c0 -4 -29 -23 -65 -42 -36 -19 -65 -39 -65 -44 0 -4 -7
-6 -15 -2 -8 3 -18 0 -22 -7 -9 -15 -63 -50 -63 -42 0 4 -7 -1 -16 -9 -8 -9
-20 -14 -25 -11 -5 4 -9 1 -9 -5 0 -6 -13 -16 -30 -21 -16 -6 -30 -16 -30 -22
0 -6 -3 -8 -6 -5 -3 4 -21 -4 -40 -17 -19 -13 -48 -30 -64 -37 -17 -7 -30 -16
-30 -20 0 -5 -4 -8 -9 -8 -6 0 -38 -17 -73 -37 -35 -21 -67 -38 -71 -38 -4 0
-12 -7 -17 -15 -5 -8 -10 -11 -10 -6 0 4 -16 -4 -35 -18 -19 -15 -35 -24 -35
-21 0 3 -20 -8 -44 -24 -24 -17 -46 -27 -50 -24 -3 4 -6 2 -6 -4 0 -6 -12 -16
-28 -22 -15 -6 -34 -22 -42 -34 -38 -60 -190 -330 -190 -338 0 -4 -8 -13 -17
-18 -10 -6 -14 -11 -10 -11 5 0 -1 -13 -12 -29 -12 -16 -21 -32 -21 -36 0 -3
-16 -30 -35 -60 -19 -30 -31 -55 -27 -55 4 0 2 -4 -3 -8 -12 -8 -70 -105 -67
-110 2 -1 -4 -10 -13 -18 -8 -9 -13 -20 -10 -25 4 -5 2 -9 -3 -9 -5 0 -17 -18
-28 -39 -10 -22 -22 -37 -26 -35 -5 3 -8 -2 -8 -11 0 -9 -11 -33 -25 -53 -14
-20 -25 -42 -25 -49 0 -7 -5 -13 -11 -13 -6 0 -8 -7 -5 -16 3 -8 2 -12 -4 -9
-5 3 -12 -6 -16 -20 -3 -14 -10 -25 -14 -25 -5 0 -12 -10 -16 -22 -3 -13 -15
-35 -25 -49 -10 -14 -16 -29 -12 -33 3 -3 1 -6 -5 -6 -7 0 -20 -18 -29 -40
-10 -22 -21 -40 -25 -40 -5 0 -8 -5 -8 -11 0 -6 -9 -23 -20 -39 -11 -15 -17
-30 -13 -34 3 -3 2 -6 -4 -6 -5 0 -22 -24 -37 -52 -42 -82 -60 -113 -68 -116
-5 -2 -8 -10 -8 -19 0 -8 -11 -29 -25 -47 -14 -18 -25 -38 -25 -43 0 -6 -7
-16 -15 -23 -8 -7 -12 -16 -9 -21 3 -5 0 -9 -5 -9 -6 0 -11 -7 -11 -15 0 -8
-5 -15 -12 -15 -6 0 -9 -3 -5 -6 3 -3 -3 -15 -13 -27 -11 -11 -17 -23 -14 -26
8 -9 1945 -7 1950 1 3 4 -9 14 -26 23 -16 8 -30 12 -30 8 0 -4 -6 0 -12 9 -7
8 -40 30 -73 48 -33 18 -63 37 -67 44 -4 6 -8 7 -8 2 0 -5 -9 -1 -20 9 -11 10
-20 15 -20 11 0 -4 -15 4 -33 18 -19 15 -41 26 -51 26 -9 0 -19 7 -22 15 -4 8
-13 15 -20 15 -8 0 -24 9 -36 20 -12 10 -25 17 -30 14 -4 -3 -11 1 -14 10 -3
8 -11 13 -18 10 -6 -2 -21 3 -31 13 -24 21 -92 62 -117 70 -10 3 -18 10 -18
15 0 5 -4 6 -10 3 -5 -3 -10 -1 -10 4 0 6 -7 11 -15 11 -8 0 -15 5 -15 10 0 6
-7 10 -15 10 -9 0 -25 9 -37 20 -12 10 -25 17 -30 14 -4 -3 -8 0 -8 6 0 6 -4
8 -10 5 -5 -3 -10 -1 -10 4 0 6 -6 11 -13 11 -7 0 -23 9 -35 20 -12 11 -26 20
-32 20 -6 0 -18 7 -27 15 -8 8 -18 13 -23 10 -9 -5 -19 16 -26 53 -5 26 33
112 49 112 6 0 8 3 5 6 -4 3 14 40 40 82 25 42 55 95 66 117 12 22 24 42 29
43 4 2 5 8 1 13 -3 5 0 9 5 9 6 0 11 7 11 15 0 8 5 15 10 15 6 0 10 6 10 14 0
8 7 22 16 30 8 9 12 16 8 16 -4 0 0 8 8 18 14 16 24 36 27 55 0 4 10 16 21 27
11 11 20 27 20 35 0 8 4 15 8 15 9 0 36 48 37 65 0 5 10 20 23 34 12 13 22 30
22 37 0 7 7 20 16 28 8 9 13 16 9 16 -4 0 3 12 14 26 11 15 19 30 16 34 -3 4
2 10 10 14 8 3 15 10 15 17 0 6 9 24 21 40 11 16 17 29 12 29 -4 0 -3 4 3 8 6
4 26 34 44 67 18 33 38 63 44 67 6 4 7 8 3 8 -5 0 1 13 12 29 12 16 21 34 21
40 0 6 3 11 8 11 4 0 13 15 21 33 8 17 17 34 20 37 9 8 51 82 64 113 6 15 15
27 19 27 4 0 8 6 8 14 0 7 7 19 15 26 9 7 13 15 11 18 -3 2 7 23 23 46 16 22
31 51 35 64 4 12 11 22 16 22 15 0 19 28 4 34 -8 3 -14 2 -14 -2z"/>
<path d="M2485 2975 c-50 -78 -95 -157 -95 -165 0 -5 -6 -13 -14 -17 -15 -8
-16 -11 -16 -39 0 -8 -4 -12 -10 -9 -5 3 -10 0 -10 -8 0 -8 -9 -26 -20 -40
-12 -15 -21 -30 -20 -34 0 -4 -6 -15 -13 -23 -16 -19 -31 -52 -29 -62 1 -5 -2
-8 -8 -8 -5 0 -10 -6 -10 -14 0 -8 -7 -16 -15 -20 -8 -3 -15 -14 -15 -25 0
-11 -7 -24 -16 -29 -9 -5 -15 -13 -15 -18 1 -17 -10 -44 -20 -44 -5 0 -9 -7
-9 -15 0 -8 -4 -15 -9 -15 -5 0 -12 -13 -16 -29 -3 -16 -13 -32 -21 -35 -9 -3
-13 -10 -10 -15 3 -5 -1 -14 -9 -21 -8 -7 -15 -16 -15 -21 0 -5 -11 -26 -24
-47 -12 -20 -23 -40 -22 -43 1 -3 -7 -13 -16 -23 -10 -10 -18 -24 -18 -32 0
-8 -3 -14 -8 -14 -4 0 -14 -15 -21 -32 -8 -18 -22 -39 -30 -46 -9 -8 -11 -11
-4 -8 8 5 8 0 0 -18 -7 -13 -14 -23 -18 -20 -3 2 -14 -16 -24 -41 -10 -24 -22
-42 -27 -39 -4 3 -8 -4 -8 -15 0 -11 -7 -26 -15 -35 -8 -8 -15 -19 -15 -25 0
-6 -5 -11 -12 -11 -6 0 -8 -3 -5 -6 3 -4 -3 -18 -13 -32 -11 -13 -20 -31 -20
-38 0 -8 -5 -14 -11 -14 -5 0 -8 -4 -5 -9 3 -5 -1 -12 -10 -15 -8 -3 -12 -10
-9 -16 3 -5 1 -10 -4 -10 -6 0 -10 -3 -10 -7 3 -20 -2 -34 -10 -29 -9 6 -26
-45 -24 -71 2 -38 4 -44 12 -39 5 3 11 -1 15 -9 5 -13 108 -15 830 -12 l825 2
20 22 c19 20 20 24 6 64 -9 23 -20 48 -26 56 -6 7 -8 13 -4 13 5 0 -1 8 -11
18 -10 9 -20 23 -22 31 -2 8 -12 27 -23 42 -10 15 -19 31 -19 37 0 5 -7 15
-15 22 -8 7 -13 16 -10 20 3 4 -2 11 -11 14 -8 3 -12 10 -9 16 3 5 2 10 -3 10
-5 0 -12 8 -16 18 -7 20 -39 76 -55 95 -6 8 -8 17 -4 20 3 4 1 7 -5 7 -7 0
-12 6 -12 14 0 8 -3 16 -7 18 -15 6 -63 105 -55 113 4 5 2 5 -4 2 -6 -3 -25
20 -44 56 -18 34 -38 69 -44 77 -7 8 -17 27 -24 43 -6 15 -16 27 -21 27 -6 0
-7 7 -4 17 4 11 3 14 -5 9 -8 -5 -12 0 -12 13 0 12 -4 21 -10 21 -5 0 -10 7
-10 15 0 8 -5 15 -11 15 -5 0 -7 5 -4 11 4 5 -3 19 -16 30 -12 10 -20 22 -16
25 3 3 -3 15 -13 27 -11 11 -17 24 -14 29 3 4 0 8 -7 8 -7 0 -10 3 -6 6 3 3
-3 15 -14 27 -10 11 -19 27 -19 34 0 7 -4 13 -10 13 -5 0 -10 4 -10 10 0 5
-19 42 -43 82 -24 40 -46 80 -50 88 -4 8 -19 33 -32 55 -14 22 -28 48 -32 57
-11 36 -108 46 -128 13z"/>
<path d="M3699 2490 c-6 -23 -4 -128 3 -124 4 3 8 0 8 -5 0 -6 -4 -11 -9 -11
-13 0 -10 -41 3 -59 8 -10 8 -13 0 -8 -7 4 -10 -21 -10 -78 1 -46 4 -82 7 -80
3 2 6 -2 6 -10 0 -8 -3 -12 -7 -10 -4 2 -7 -9 -7 -25 0 -17 5 -27 10 -23 6 4
7 1 1 -8 -12 -20 -14 -80 -1 -72 6 4 7 1 1 -8 -12 -20 -13 -100 -1 -92 6 4 7
1 2 -8 -12 -19 -13 -79 -1 -79 5 0 1 -7 -10 -16 -10 -8 -14 -13 -8 -10 7 3 15
-1 18 -10 3 -8 2 -13 -3 -10 -4 3 -8 -21 -7 -54 0 -34 4 -56 10 -53 5 4 6 1 1
-8 -14 -21 -15 -60 -3 -53 7 5 8 2 2 -7 -12 -20 -14 -80 -1 -72 6 4 7 1 2 -8
-5 -7 -10 -35 -11 -62 -2 -51 -27 -92 -51 -83 -7 3 -14 2 -17 -2 -6 -9 -100
-7 -116 3 -9 5 -11 4 -6 -3 4 -7 3 -12 -3 -12 -5 0 -13 5 -16 10 -4 6 -12 7
-18 3 -15 -9 -101 -8 -117 2 -9 5 -11 4 -6 -3 4 -7 3 -12 -3 -12 -5 0 -13 5
-16 10 -4 6 -12 7 -18 3 -15 -9 -101 -8 -117 2 -9 5 -11 4 -6 -3 4 -7 3 -12
-3 -12 -5 0 -13 5 -16 10 -4 6 -12 7 -18 3 -15 -9 -101 -8 -117 2 -9 5 -11 4
-6 -3 4 -7 3 -12 -3 -12 -5 0 -13 5 -16 10 -4 6 -12 7 -18 3 -15 -9 -101 -8
-117 2 -9 5 -11 4 -6 -3 4 -7 3 -12 -3 -12 -5 0 -13 5 -16 10 -4 6 -12 7 -18
3 -15 -9 -101 -8 -117 2 -9 5 -11 4 -6 -3 4 -7 3 -12 -3 -12 -5 0 -13 5 -16
10 -4 6 -11 7 -17 4 -16 -10 -119 -11 -125 -1 -2 4 -9 4 -15 1 -16 -10 -138
-10 -138 -1 0 5 -6 5 -12 0 -17 -10 -68 -11 -74 -1 -3 5 -10 5 -16 2 -16 -10
-138 -10 -138 -1 0 5 -6 5 -12 0 -17 -10 -68 -11 -74 -1 -3 5 -10 5 -16 2 -16
-10 -138 -10 -138 -1 0 5 -6 5 -12 0 -7 -4 -35 -6 -62 -5 -43 3 -47 2 -35 -11
8 -8 25 -17 37 -21 12 -4 28 -13 35 -19 17 -16 65 -44 100 -58 15 -6 27 -15
27 -21 0 -5 5 -6 10 -3 6 3 10 3 10 -2 0 -4 15 -14 33 -22 17 -8 34 -17 37
-20 7 -8 59 -39 100 -59 19 -9 40 -22 47 -28 6 -6 25 -17 42 -24 17 -7 31 -16
31 -21 0 -5 3 -8 8 -7 7 2 14 -2 82 -42 19 -11 43 -23 53 -26 9 -4 17 -9 17
-13 0 -4 16 -13 35 -21 19 -8 35 -17 35 -20 0 -3 16 -12 35 -20 19 -8 35 -18
35 -22 0 -5 5 -6 10 -3 6 3 10 2 10 -3 0 -4 17 -17 38 -27 36 -19 75 -19 1025
-20 543 -1 987 0 987 2 0 2 -11 21 -25 43 -14 22 -25 44 -25 49 0 5 -3 11 -7
13 -8 3 -46 69 -68 115 -5 13 -13 23 -17 23 -5 0 -8 10 -8 22 0 12 -3 18 -7
15 -3 -4 -14 10 -24 31 -10 20 -32 60 -49 87 -17 28 -36 62 -43 78 -6 15 -15
27 -20 27 -4 0 -5 5 -2 10 3 6 2 10 -4 10 -5 0 -19 21 -32 48 -12 26 -26 49
-29 52 -8 6 -22 44 -18 48 2 2 -5 8 -14 13 -10 6 -18 17 -18 24 0 8 -5 15 -11
15 -5 0 -8 4 -4 9 3 5 1 12 -4 15 -5 3 -18 24 -30 46 -11 21 -33 59 -48 82
-15 24 -26 49 -25 56 2 6 -4 12 -13 12 -8 0 -14 3 -13 8 2 7 -70 142 -82 152
-3 3 -16 26 -29 53 -13 26 -28 47 -33 47 -5 0 -7 4 -4 9 3 4 -6 23 -19 41 -14
19 -25 40 -25 47 0 8 -6 16 -14 19 -9 3 -12 12 -9 21 4 11 2 14 -5 9 -8 -5
-12 0 -12 13 0 12 -4 21 -9 21 -5 0 -11 8 -15 18 -7 21 -28 55 -39 63 -5 3 -7
8 -6 10 4 5 -62 122 -74 130 -5 4 -6 12 -3 18 4 6 3 11 -1 11 -5 0 -16 12 -25
28 -10 15 -18 25 -19 22z"/>
</g>
</svg>
